<svg clip-rule="evenodd" fill-rule="evenodd" stroke-linecap="round" stroke-linejoin="round" stroke-miterlimit="1.5" viewBox="0 0 3000 3000" xmlns="http://www.w3.org/2000/svg" xmlns:xlink="http://www.w3.org/1999/xlink"><clipPath id="a"><path clip-rule="evenodd" d="m5026.29 412.372h1786.25v2586.26h-1786.25z"/></clipPath><g transform="matrix(1.6795 0 0 1.15998 -8441.65 -478.344)"><path d="m5026.29 412.372h1786.25v2586.26h-1786.25z" fill="#ddfff7"/><g clip-path="url(#a)" fill="none"><path d="m13218.7 6102.55c-309.5-611.33-809.7-669.37-415.8-2740.64 394-2071.28-2797.4-1329.17-2797.4-1329.17" stroke="#5bb0b9" stroke-width="229.17" transform="matrix(.595417 0 0 .862086 -1260.39 -4179.57)"/><g stroke="#aa4465"><path d="m12663.9 2885.89c-330.3 168.87-1029.1 1924.26 243.1 1341.73" stroke-width="181.4" transform="matrix(-.632817 -.41571 .266251 -.849645 13261.4 8797.84)"/><path d="m13218.7 3513.8c-894.5-502.7-4569.16 142.41-3846.78 505 722.38 362.58 2200.28-278.29 2200.28-278.29" stroke-width="204.17" transform="matrix(.595417 0 0 .862086 -1716.6 -2500.88)"/><path d="m11429.6 6838.68c-96.6-256.6-577-1548.95-1937.01-244.1" stroke-width="229.17" transform="matrix(.595417 0 0 .862086 -1145.22 -2405.8)"/></g><path d="m16739.5 2474.36c430.1 459.43 725.6 1743.2 1338 731.46s2320-240.45 2320-240.45" stroke="#158f9b" stroke-width="229.17" transform="matrix(.595417 0 0 .862086 -5495.34 -906.218)"/><path d="m16461.7 2339.28c610 932.61 1714 627.86 2699.3 1467.01" stroke="#ffa69e" stroke-width="204.17" transform="matrix(.595417 0 0 .862086 -5145.98 -850.901)"/><path d="m18788.5 4626c221-485.61-339.5-678.67-495.2-1105.46-155.8-426.78 685.1-1481.15 685.1-1481.15" stroke="#5bb0b9" stroke-width="229.17" transform="matrix(.595417 0 0 .862086 -5145.98 -850.901)"/><path d="m10155.5 2615.55c2.4 353.17-231.74 949.47 272.9 1125.52" stroke="#ffa69e" stroke-width="155.96" transform="matrix(.9277 0 0 .862086 -3939.72 -2390.46)"/><path d="m17981.8 3892.61c207 354.46 1366.2 995.36 2277.3-686.79" stroke="#aa4465" stroke-width="229.17" transform="matrix(.595417 0 0 .862086 -5145.98 -850.901)"/><path d="m10179.2 5231.34c-69.4 261.78-985.56 289.16-1171.17 59.61" stroke="#ffa69e" stroke-width="91.9" transform="matrix(-.204364 -1.16524 1.62483 -.597388 -265.742 16903)"/></g></g></svg>